<?xml version="1.0"?>
<svg xmlns="http://www.w3.org/2000/svg" viewBox="0 0 512 512" width="512" height="512"><g id="Out_line" data-name="Out line"><path d="M380.68994,168l29.65015,29.65991A8.00769,8.00769,0,0,0,416,200h17.37988a24,24,0,1,0,0-16H419.31006l-29.65015-29.66016A8.00745,8.00745,0,0,0,384,152H360V128h57.37988a24,24,0,1,0,0-16H360V88h16a8.00769,8.00769,0,0,0,5.65991-2.34009L411.31006,56h22.06982a24,24,0,1,0,0-16H408a8.00745,8.00745,0,0,0-5.65991,2.33984L372.68994,72H360V24a7.9979,7.9979,0,0,0-8-8H160a7.9979,7.9979,0,0,0-8,8V72H99.31006L77.65991,50.33984A23.99538,23.99538,0,1,0,66.34009,61.65991l24,24A8.00769,8.00769,0,0,0,96,88h56v24H94.62012a24,24,0,1,0,0,16H152v24H104a8.00745,8.00745,0,0,0-5.65991,2.33984l-32,32a23.9963,23.9963,0,1,0,11.31982,11.32007L107.31006,168H152v40.80005A39.98386,39.98386,0,0,0,128.02,272H128a55.9723,55.9723,0,0,0-38.78,96.35986A64.00015,64.00015,0,0,0,96,496H472a8,8,0,0,0,0-16,48,48,0,0,1,0-96,8,8,0,0,0,0-16H424a40,40,0,0,1,0-80,8,8,0,0,0,0-16H384a24,24,0,0,1,0-48,8,8,0,0,0,0-16H360V168ZM456,184a8,8,0,1,1-8,8A8.01058,8.01058,0,0,1,456,184Zm-16-72a8,8,0,1,1-8,8A8.01058,8.01058,0,0,1,440,112Zm16-72a8,8,0,1,1-8,8A8.01058,8.01058,0,0,1,456,40ZM56,48a8,8,0,1,1,8-8A8.01074,8.01074,0,0,1,56,48Zm16,80a8,8,0,1,1,8-8A8.01074,8.01074,0,0,1,72,128ZM56,216a8,8,0,1,1,8-8A8.01074,8.01074,0,0,1,56,216ZM312,32h32V208H312V184a7.9979,7.9979,0,0,0,8-8V64a7.9979,7.9979,0,0,0-8-8ZM232,208H216V184h16Zm16-24h16v24H248Zm32,0h16v24H280Zm0-152h16V56H280Zm-32,0h16V56H248Zm-32,0h16V56H216Zm-8,40h96v56h-9.37988a23.98406,23.98406,0,0,0-32.97022-13.6499A23.99524,23.99524,0,1,0,217.37988,96H208Zm72,64a8,8,0,1,1-8-8A8.01074,8.01074,0,0,1,280,136Zm-32-32a8,8,0,1,1-8-8A8.01074,8.01074,0,0,1,248,104Zm-40,8h9.37988a23.98406,23.98406,0,0,0,32.97022,13.6499A23.99524,23.99524,0,1,0,294.62012,144H304v24H208ZM168,32h32V56a7.9979,7.9979,0,0,0-8,8V176a7.9979,7.9979,0,0,0,8,8v24H168Zm-8,192H352.02a39.74987,39.74987,0,0,0-7.21,16H168v16H344.81006a39.7514,39.7514,0,0,0,7.21,16H160a24,24,0,0,1,0-48ZM429.71,384a64.22432,64.22432,0,0,0-13.10986,16H88v16H410.03a61.80263,61.80263,0,0,0-1.53,8H72v16H408.5a61.80263,61.80263,0,0,0,1.53,8H88v16H416.6001A64.22432,64.22432,0,0,0,429.71,480H96a48,48,0,0,1,0-96ZM384.8501,288a55.10712,55.10712,0,0,0-6.77,8H128v16H370.34009a54.47562,54.47562,0,0,0-1.76,8H112v16H368.58008a54.48273,54.48273,0,0,0,1.76,8H128v16H378.08008a55.10712,55.10712,0,0,0,6.77,8H128a40,40,0,0,1,0-80Z"/></g></svg>
