<svg id="_x33_0" enable-background="new 0 0 64 64" height="512" viewBox="0 0 64 64" width="512" xmlns="http://www.w3.org/2000/svg"><g><circle cx="32" cy="16" r="1"/><path d="m37 16c0-2.757-2.243-5-5-5s-5 2.243-5 5 2.243 5 5 5 5-2.243 5-5zm-5 3c-1.654 0-3-1.346-3-3s1.346-3 3-3 3 1.346 3 3-1.346 3-3 3z"/><circle cx="38" cy="28" r="1"/><path d="m38 23c-2.757 0-5 2.243-5 5s2.243 5 5 5 5-2.243 5-5-2.243-5-5-5zm0 8c-1.654 0-3-1.346-3-3s1.346-3 3-3 3 1.346 3 3-1.346 3-3 3z"/><circle cx="22" cy="26" r="1"/><path d="m1 5h4v2h-4z"/><path d="m7 5h10v2h-10z"/><path d="m1 9h16v2h-16z"/><path d="m1 13h2v2h-2z"/><path d="m5 13h2v2h-2z"/><path d="m9 13h2v2h-2z"/><path d="m44.179 34.112c1.759-1.971 2.821-4.557 2.821-7.344 0-.562-.043-1.127-.129-1.679l-1.14-7.412c-.514-3.335-2.382-6.372-5.127-8.333-2.148-1.533-4.679-2.344-7.319-2.344h-3.261c-1.638 0-3.259.331-4.764.958l-3.656-6.958h-20.604v2h19.396l3.092 5.883c-2.814 1.752-4.835 4.569-5.557 7.818l-.486 2.188c-.296 1.326-.445 2.688-.445 4.05 0 4.129 1.396 8.199 3.932 11.459l.216.277c2.137 2.749 5.36 4.325 8.842 4.325.736 0 1.476-.073 2.196-.218l5.938-1.188c1.708-.342 3.255-1.078 4.567-2.094l4.759 7.5h15.55v-2h-14.45zm-25.025-9.032c.397-1.231 1.536-2.08 2.846-2.08 1.654 0 3 1.346 3 3s-1.346 3-3 3c-.838 0-1.62-.358-2.188-.968-.308-.961-.527-1.949-.658-2.952zm18.577 10.554-5.938 1.188c-.592.118-1.198.178-1.803.178-2.86 0-5.509-1.295-7.265-3.553l-.215-.277c-.557-.716-1.051-1.477-1.481-2.271.317.063.641.101.971.101 2.757 0 5-2.243 5-5s-2.243-5-5-5c-1.093 0-2.112.361-2.947.971.052-.891.151-1.779.344-2.647l.486-2.189c.634-2.852 2.451-5.317 4.986-6.766 1.568-.896 3.351-1.369 5.155-1.369h3.261c2.221 0 4.35.682 6.157 1.973 2.309 1.649 3.881 4.204 4.313 7.009l1.14 7.412c.07.452.105.915.105 1.374 0 4.295-3.057 8.024-7.269 8.866z"/><path d="m51 37h12v2h-12z"/><path d="m51 33h12v2h-12z"/><path d="m44 9c1.654 0 3-1.346 3-3s-1.346-3-3-3-3 1.346-3 3 1.346 3 3 3zm0-4c.552 0 1 .449 1 1s-.448 1-1 1-1-.449-1-1 .448-1 1-1z"/><path d="m52 7c1.654 0 3-1.346 3-3s-1.346-3-3-3-3 1.346-3 3 1.346 3 3 3zm0-4c.552 0 1 .449 1 1s-.448 1-1 1-1-.449-1-1 .448-1 1-1z"/><path d="m51.535 23c1.211 0 2.351-.472 3.207-1.329l6.93-6.929c.856-.856 1.328-1.994 1.328-3.206 0-2.501-2.034-4.536-4.535-4.536-1.211 0-2.351.472-3.207 1.329l-6.93 6.929c-.856.856-1.328 1.994-1.328 3.206 0 2.501 2.034 4.536 4.535 4.536zm-2.535-4.536c0-.561.19-1.089.523-1.527l3.539 3.539c-.439.334-.966.524-1.527.524-1.397 0-2.535-1.138-2.535-2.536zm10.086-3.964-1.586 1.586-3.586-3.586 1.586-1.586zm-3 3-1.586 1.586-3.586-3.586 1.586-1.586zm4.914-5.964c0 .561-.19 1.089-.523 1.527l-3.539-3.539c.439-.334.966-.524 1.527-.524 1.397 0 2.535 1.138 2.535 2.536z"/><path d="m8.742 48.329c-.856-.857-1.996-1.329-3.207-1.329-2.501 0-4.535 2.035-4.535 4.536 0 1.212.472 2.351 1.328 3.207l6.93 6.929c.856.856 1.996 1.328 3.207 1.328 2.501 0 4.535-2.035 4.535-4.536 0-1.212-.472-2.351-1.328-3.207zm.758 10.757-1.586-1.586 3.586-3.586 1.586 1.586zm-1-8.172 1.586 1.586-3.586 3.586-1.586-1.586zm-2.965-1.914c.56 0 1.088.19 1.527.524l-3.539 3.539c-.333-.439-.523-.966-.523-1.527 0-1.398 1.138-2.536 2.535-2.536zm6.93 12c-.56 0-1.088-.19-1.527-.524l3.539-3.539c.333.439.523.966.523 1.527 0 1.398-1.138 2.536-2.535 2.536z"/><path d="m10.742 32.329c-.856-.857-1.996-1.329-3.207-1.329-2.501 0-4.535 2.035-4.535 4.536 0 1.212.472 2.351 1.328 3.207l6.93 6.929c.856.856 1.996 1.328 3.207 1.328 2.501 0 4.535-2.035 4.535-4.536 0-1.212-.472-2.351-1.328-3.207zm.758 10.757-1.586-1.586 3.586-3.586 1.586 1.586zm-1-8.172 1.586 1.586-3.586 3.586-1.586-1.586zm-2.965-1.914c.56 0 1.088.19 1.527.524l-3.539 3.539c-.333-.439-.523-.966-.523-1.527 0-1.398 1.138-2.536 2.535-2.536zm6.93 12c-.56 0-1.088-.19-1.527-.524l3.539-3.539c.333.439.523.966.523 1.527 0 1.398-1.138 2.536-2.535 2.536z"/><path d="m28.742 48.329c-.856-.857-1.996-1.329-3.207-1.329-2.501 0-4.535 2.035-4.535 4.536 0 1.212.472 2.351 1.328 3.207l6.93 6.929c.856.856 1.996 1.328 3.207 1.328 2.501 0 4.535-2.035 4.535-4.536 0-1.212-.472-2.351-1.328-3.207zm.758 10.757-1.586-1.586 3.586-3.586 1.586 1.586zm-1-8.172 1.586 1.586-3.586 3.586-1.586-1.586zm-2.965-1.914c.56 0 1.088.19 1.527.524l-3.539 3.539c-.333-.439-.523-.966-.523-1.527 0-1.398 1.138-2.536 2.535-2.536zm6.93 12c-.56 0-1.088-.19-1.527-.524l3.539-3.539c.333.439.523.966.523 1.527 0 1.398-1.138 2.536-2.535 2.536z"/><path d="m45 51c-2.206 0-4 1.794-4 4s1.794 4 4 4 4-1.794 4-4-1.794-4-4-4zm0 6c-1.103 0-2-.897-2-2s.897-2 2-2 2 .897 2 2-.897 2-2 2z"/><path d="m54 57c-1.654 0-3 1.346-3 3s1.346 3 3 3 3-1.346 3-3-1.346-3-3-3zm0 4c-.552 0-1-.449-1-1s.448-1 1-1 1 .449 1 1-.448 1-1 1z"/></g></svg>