<svg height="512pt" viewBox="0 0 512.002 512" width="512pt" xmlns="http://www.w3.org/2000/svg"><path d="m480.871094 103.882812c-13.664063 0-25.292969 8.855469-29.46875 21.128907h-31.414063c-3.785156-16.132813-16.503906-28.855469-32.640625-32.640625v-31.773438c12.269532-4.175781 21.128906-15.804687 21.128906-29.46875 0-17.164062-13.964843-31.128906-31.128906-31.128906-17.164062 0-31.125 13.964844-31.125 31.128906 0 13.664063 8.855469 25.292969 21.125 29.46875v31.773438c-8.636718 2.027344-16.296875 6.609375-22.132812 12.910156l-51.519532-29.222656c.363282-1.898438.558594-3.847656.558594-5.847656 0-17.164063-13.964844-31.125-31.125-31.125-17.164062 0-31.128906 13.960937-31.128906 31.125 0 17.164062 13.964844 31.128906 31.128906 31.128906 7.933594 0 15.179688-2.988282 20.683594-7.894532l51.515625 29.222657c-1.152344 3.917969-1.78125 8.058593-1.78125 12.34375 0 7.644531 1.972656 14.835937 5.433594 21.101562l-29.609375 25.765625c-4.074219-2.378906-8.671875-3.816406-13.519532-4.152344-8.308593-.574218-16.320312 2.113282-22.589843 7.574219-12.945313 11.265625-14.3125 30.96875-3.042969 43.914063 5.457031 6.273437 13.03125 10.042968 21.324219 10.617187.734375.050781 1.46875.078125 2.199219.078125 7.503906 0 14.675781-2.675781 20.390624-7.648437 6.269532-5.460938 10.042969-13.035157 10.617188-21.328125.335938-4.847656-.453125-9.601563-2.246094-13.96875l29.871094-26c7.089844 4.941406 15.695312 7.847656 24.976562 7.847656 20.710938 0 38.097657-14.453125 42.636719-33.804688h31.414063c4.175781 12.273438 15.808594 21.128907 29.472656 21.128907 17.164062 0 31.128906-13.964844 31.128906-31.128907 0-17.160156-13.96875-31.125-31.132812-31.125zm-217.742188-22.542968c-6.136718 0-11.128906-4.992188-11.128906-11.128906 0-6.132813 4.992188-11.125 11.128906-11.125 6.132813 0 11.125 4.992187 11.125 11.125 0 6.136718-4.992187 11.128906-11.125 11.128906zm114.21875-61.339844c6.136719 0 11.128906 4.992188 11.128906 11.128906 0 6.136719-4.992187 11.125-11.128906 11.125-6.132812 0-11.125-4.992187-11.125-11.125 0-6.136718 4.992188-11.128906 11.125-11.128906zm-72.550781 189.550781c-.207031 2.964844-1.554687 5.671875-3.796875 7.625-2.242188 1.949219-5.109375 2.90625-8.074219 2.707031-2.964843-.207031-5.671875-1.554687-7.625-3.796874-4.027343-4.625-3.539062-11.671876 1.089844-15.699219 2.042969-1.777344 4.605469-2.734375 7.289063-2.734375.261718 0 .523437.007812.785156.027344 2.964844.207031 5.671875 1.554687 7.625 3.796874 1.949218 2.242188 2.914062 5.109376 2.707031 8.074219zm72.550781-50.734375c-13.125 0-23.800781-10.679687-23.800781-23.804687s10.675781-23.804688 23.800781-23.804688 23.804688 10.679688 23.804688 23.804688-10.679688 23.804687-23.804688 23.804687zm103.523438-12.679687c-6.132813 0-11.125-4.992188-11.125-11.125 0-6.136719 4.992187-11.128907 11.125-11.128907 6.136718 0 11.128906 4.992188 11.128906 11.128907s-4.992188 11.125-11.128906 11.125zm0 0"/><path d="m248.847656 262.96875c-.003906-.003906-.007812-.007812-.011718-.011719-.003907-.003906-.007813-.007812-.011719-.011719l-67.871094-67.871093c-20.019531-20.019531-46.640625-31.046875-74.953125-31.046875s-54.933594 11.027344-74.953125 31.046875c-20.019531 20.023437-31.046875 46.640625-31.046875 74.953125 0 28.316406 11.027344 54.933594 31.046875 74.953125l135.765625 135.765625c20.019531 20.023437 46.640625 31.046875 74.953125 31.046875s54.933594-11.027344 74.953125-31.046875c20.019531-20.019532 31.046875-46.640625 31.046875-74.953125s-11.027344-54.933594-31.046875-74.953125zm-228.847656 7.058594c0-22.96875 8.945312-44.566406 25.1875-60.808594 16.246094-16.246094 37.839844-25.191406 60.8125-25.191406s44.566406 8.945312 60.8125 25.191406l60.808594 60.808594-121.621094 121.621094-60.8125-60.808594c-16.242188-16.242188-25.1875-37.839844-25.1875-60.8125zm282.574219 196.578125c-16.242188 16.242187-37.839844 25.1875-60.808594 25.1875-22.972656 0-44.570313-8.945313-60.8125-25.1875l-60.8125-60.8125 121.621094-121.621094 60.8125 60.808594c33.53125 33.53125 33.53125 88.09375 0 121.625zm0 0"/><path d="m106 232.027344c10.148438 0 19.691406 3.953125 26.871094 11.132812 1.953125 1.953125 4.511718 2.929688 7.070312 2.929688s5.117188-.976563 7.070313-2.929688c3.90625-3.90625 3.90625-10.238281 0-14.144531-10.953125-10.953125-25.519531-16.988281-41.011719-16.988281s-30.058594 6.035156-41.015625 16.988281c-3.902344 3.90625-3.902344 10.238281 0 14.144531 3.90625 3.902344 10.238281 3.902344 14.144531 0 7.179688-7.179687 16.722656-11.132812 26.871094-11.132812zm0 0"/><path d="m268.636719 432.664062c-14.816407 14.816407-38.925781 14.816407-53.742188 0-3.90625-3.90625-10.234375-3.90625-14.140625 0-3.90625 3.902344-3.90625 10.234376 0 14.140626 11.304688 11.308593 26.15625 16.960937 41.011719 16.960937 14.851563 0 29.703125-5.652344 41.011719-16.960937 3.90625-3.902344 3.90625-10.234376 0-14.140626s-10.238282-3.90625-14.140625 0zm0 0"/><path d="m168.230469 274.371094c2.628906 0 5.199219-1.070313 7.070312-2.929688 1.859375-1.859375 2.917969-4.441406 2.917969-7.070312s-1.058594-5.210938-2.917969-7.070313c-1.863281-1.859375-4.441406-2.929687-7.070312-2.929687-2.640625 0-5.210938 1.070312-7.082031 2.929687-1.859376 1.859375-2.917969 4.441407-2.917969 7.070313s1.058593 5.210937 2.917969 7.070312c1.871093 1.859375 4.441406 2.929688 7.082031 2.929688zm0 0"/><path d="m179.539062 401.449219c-2.628906 0-5.210937 1.070312-7.070312 2.933593-1.859375 1.859376-2.929688 4.4375-2.929688 7.066407 0 2.632812 1.070313 5.210937 2.929688 7.070312 1.863281 1.863281 4.441406 2.929688 7.070312 2.929688 2.632813 0 5.210938-1.066407 7.070313-2.929688 1.859375-1.859375 2.929687-4.4375 2.929687-7.070312 0-2.636719-1.070312-5.207031-2.929687-7.066407-1.859375-1.863281-4.4375-2.933593-7.070313-2.933593zm0 0"/></svg>