<svg id="_x33_0" enable-background="new 0 0 64 64" height="512" viewBox="0 0 64 64" width="512" xmlns="http://www.w3.org/2000/svg"><g><path d="m60 39c1.654 0 3-1.346 3-3s-1.346-3-3-3c-.213 0-.424.03-.632.075l-8.41-13.581c1.289-1.128 2.042-2.743 2.042-4.494 0-3.309-2.691-6-6-6-1.587 0-3.099.645-4.222 1.753l-6.054-4.325c.175-.454.276-.934.276-1.428 0-2.206-1.794-4-4-4s-4 1.794-4 4c0 .426.072.84.198 1.232l-5.722 3.628c-.693-.553-1.558-.86-2.476-.86-2.206 0-4 1.794-4 4s1.794 4 4 4c.339 0 .672-.045.997-.13l2.78 4.315c-1.203.955-2.172 2.181-2.819 3.565l-11.044-3.897c.048-.277.086-.56.086-.853 0-2.757-2.243-5-5-5s-5 2.243-5 5 2.243 5 5 5c1.753 0 3.293-.912 4.186-2.282l11.105 3.918c-.19.764-.291 1.554-.291 2.364 0 2.536.967 4.96 2.672 6.791l-3.841 4.362c-1.128-.745-2.454-1.153-3.831-1.153-1.746 0-3.401.652-4.677 1.803l-4.51-3.756c.122-.33.187-.681.187-1.047 0-1.654-1.346-3-3-3s-3 1.346-3 3 1.346 3 3 3c.548 0 1.065-.162 1.517-.43l4.531 3.774c-.673 1.094-1.048 2.356-1.048 3.656 0 2.465 1.291 4.715 3.356 5.976l-2.164 5.044c-.065-.005-.128-.02-.192-.02-1.654 0-3 1.346-3 3s1.346 3 3 3 3-1.346 3-3c0-.848-.363-1.635-.969-2.196l2.165-5.046c.583.155 1.185.242 1.804.242 1.891 0 3.69-.78 4.984-2.107l6.311 4.634c-.186.469-.295.968-.295 1.473 0 2.206 1.794 4 4 4s4-1.794 4-4c0-.314-.038-.623-.111-.925l7.462-3.949c1.307 1.793 3.392 2.874 5.649 2.874 1.539 0 2.992-.497 4.187-1.399l3.38 3.38c-.352.595-.567 1.279-.567 2.019 0 2.206 1.794 4 4 4s4-1.794 4-4-1.794-4-4-4c-.74 0-1.424.215-2.019.567l-3.38-3.38c.903-1.198 1.399-2.65 1.399-4.187 0-1.539-.497-2.992-1.399-4.187l5.113-5.113c.396.19.83.3 1.286.3zm-36.248-23.099c.787-.743 1.248-1.785 1.248-2.901 0-.531-.12-1.05-.322-1.534l5.588-3.543c.729.686 1.698 1.077 2.734 1.077.949 0 1.856-.342 2.568-.939l6.04 4.314c-.397.817-.608 1.708-.608 2.625 0 1.115.318 2.198.896 3.137l-4.071 3.564c-1.835-1.726-4.269-2.701-6.825-2.701-1.593 0-3.137.397-4.534 1.115zm1.748 10.699c.955-2.187 3.114-3.6 5.5-3.6v2c-1.591 0-3.03.942-3.668 2.4zm1.832 4-1.832.8c-.332-.758-.5-1.566-.5-2.4h2c0 .557.112 1.095.332 1.6zm13.668 17.4c0 .821.144 1.609.415 2.358l-7.463 3.95c-.746-.821-1.808-1.308-2.952-1.308-.936 0-1.831.331-2.533.907l-6.297-4.624c.541-1.001.83-2.117.83-3.283 0-1.678-.606-3.277-1.669-4.522l3.841-4.363c1.685 1.22 3.718 1.885 5.828 1.885 2.131 0 4.187-.681 5.888-1.926l5.755 6.437c-1.049 1.252-1.643 2.837-1.643 4.489zm16.299-10.713-5.112 5.112c-1.198-.903-2.65-1.399-4.187-1.399-1.388 0-2.73.417-3.87 1.176l-5.753-6.435c1.675-1.83 2.623-4.234 2.623-6.741 0-2.091-.657-4.113-1.858-5.792l4.072-3.565c1.059.867 2.39 1.357 3.786 1.357.787 0 1.552-.16 2.259-.449l8.415 13.587c-.421.522-.674 1.165-.674 1.862 0 .458.111.893.299 1.287z"/><path d="m1 3h6v2h-6z"/><path d="m9 3h6v2h-6z"/><path d="m1 7h14v2h-14z"/><path d="m1 11h2v2h-2z"/><path d="m5 11h2v2h-2z"/><path d="m9 11h2v2h-2z"/><path d="m39 61h2v2h-2z"/><path d="m43 61h2v2h-2z"/><path d="m39 57h6v2h-6z"/><path d="m47 57h6v2h-6z"/><path d="m47 61h6v2h-6z"/><path d="m55 3h8v2h-8z"/><path d="m55 7h8v2h-8z"/><path d="m55 11h8v2h-8z"/><path d="m55 15h8v2h-8z"/><path d="m55 19h2v2h-2z"/><path d="m59 19h2v2h-2z"/></g></svg>