<svg id="Layer_1" enable-background="new 0 0 512 512" height="512" viewBox="0 0 512 512" width="512" xmlns="http://www.w3.org/2000/svg"><g><path d="m92.122 172.731c1.681 0 3.385-.425 4.949-1.318l42.129-24.054c4.796-2.738 6.464-8.846 3.726-13.643-2.738-4.796-8.845-6.464-13.643-3.726l-42.129 24.054c-4.796 2.738-6.464 8.846-3.726 13.643 1.846 3.232 5.221 5.044 8.694 5.044z"/><path d="m87.205 75.756 42.098 24.106c1.567.897 3.275 1.323 4.96 1.323 3.468 0 6.84-1.807 8.688-5.032 2.744-4.793 1.083-10.903-3.709-13.647l-42.098-24.106c-4.794-2.744-10.903-1.084-13.647 3.709-2.745 4.793-1.084 10.902 3.708 13.647z"/><circle cx="420.281" cy="349.27" r="10"/><circle cx="420.17" cy="208.69" r="10"/><circle cx="338" cy="61.5" r="10"/><path d="m506.969 340.501-76.856-44.009.026-42.791c.01-2.67-1.03-5.18-2.92-7.07s-4.4-2.94-7.08-2.94c-5.51 0-9.99 4.49-9.99 10l-.03 42.564-72.531 41.412-71.531-40.954.053-82.214 76.91-43.908c3.11-1.78 5.04-5.11 5.04-8.69l-.03-55.41c-.01-5.51-4.49-9.99-10.01-9.99-5.51 0-10 4.49-9.99 10l.03 49.6-71.832 41.012-71.997-41.227.056-87.875c.002-3.587-1.917-6.901-5.031-8.684l-82.083-47.004c-3.075-1.762-6.851-1.764-9.928-.006l-82.144 46.9c-3.115 1.779-5.039 5.09-5.042 8.678l-.059 93.902c-.002 3.587 1.917 6.901 5.031 8.684l76.852 44.007-.056 87.876c-.002 3.587 1.917 6.901 5.031 8.684l76.303 43.693-.057 89.25c-.002 3.587 1.917 6.901 5.031 8.684l82.083 47.003c1.54.882 3.254 1.322 4.969 1.322 1.71 0 3.422-.438 4.958-1.316l82.144-46.9c3.115-1.779 5.039-5.09 5.042-8.678l.057-88.551 72.918-41.634 71.694 41.055v97.024c0 5.523 4.477 10 10 10s10-4.477 10-10v-102.822c0-3.585-1.919-6.896-5.031-8.677zm-486.913-266.793 72.14-41.188 72.087 41.278-.052 81.849-72.535 41.413-71.692-41.052zm81.826 141.019 72.535-41.414 71.693 41.052-.052 82.301-72.14 41.188-72.087-41.279zm225.451 223.566-72.14 41.188-72.087-41.278.052-82.3 72.14-41.188 72.087 41.278z"/><path d="m292.386 412.185-42.129 24.054c-4.796 2.738-6.464 8.846-3.726 13.643 1.845 3.232 5.22 5.043 8.693 5.043 1.681 0 3.385-.425 4.949-1.318l42.129-24.054c4.796-2.738 6.464-8.846 3.726-13.643-2.738-4.795-8.844-6.464-13.642-3.725z"/><path d="m246.599 344.302c-2.744 4.793-1.083 10.903 3.709 13.647l42.098 24.106c1.567.897 3.275 1.323 4.96 1.323 3.468 0 6.84-1.807 8.688-5.032 2.744-4.793 1.083-10.903-3.709-13.647l-42.098-24.106c-4.795-2.743-10.904-1.083-13.648 3.709z"/><path d="m213.154 363.325h-.006c-5.52 0-9.997 4.473-10 9.994l-.031 47.492c-.003 5.523 4.471 10.003 9.994 10.006h.006c5.52 0 9.997-4.473 10-9.994l.031-47.492c.003-5.522-4.471-10.002-9.994-10.006z"/><path d="m467.34 364.7-3.04-1.74c-1.51-.87-3.23-1.33-4.96-1.33-3.58 0-6.91 1.93-8.69 5.04-2.28 3.97-1.57 8.97 1.72 12.15l-.03 61.04c0 5.52 4.49 10.01 10 10.01s10-4.48 10.01-10c0 0-.01 0-.01-.01l.04-66.48c0-3.58-1.93-6.9-5.04-8.68z"/></g></svg>