<?xml version="1.0"?>
<svg xmlns="http://www.w3.org/2000/svg" viewBox="0 0 64 64" width="512" height="512"><g id="Cell"><path d="M54,45a2.98,2.98,0,0,0-1.29.3L45.7,38.29A2.98,2.98,0,0,0,46,37a3.01,3.01,0,0,0-2-2.82V29.82A3.01,3.01,0,0,0,46,27a2.98,2.98,0,0,0-.3-1.29l7.01-7.01a3,3,0,1,0,0-5.4L45.7,6.29a3,3,0,1,0-5.4,0L33.29,13.3a2.923,2.923,0,0,0-2.58,0L23.7,6.29a3,3,0,1,0-5.4,0L11.29,13.3a3,3,0,1,0,0,5.4l7.01,7.01A2.98,2.98,0,0,0,18,27a3.01,3.01,0,0,0,2,2.82v4.36A3.01,3.01,0,0,0,18,37a2.98,2.98,0,0,0,.3,1.29L11.29,45.3a3,3,0,1,0,0,5.4l7.01,7.01a3,3,0,1,0,5.4,0l7.01-7.01a2.924,2.924,0,0,0,2.58,0l7.01,7.01a3,3,0,1,0,5.4,0l7.01-7.01A3,3,0,1,0,54,45Zm0-30a1,1,0,1,1-1,1A1,1,0,0,1,54,15ZM10,17a1,1,0,1,1,1-1A1,1,0,0,1,10,17Zm0,32a1,1,0,1,1,1-1A1,1,0,0,1,10,49ZM43,28a1,1,0,1,1,1-1A1,1,0,0,1,43,28Zm1,9a1,1,0,1,1-1-1A1,1,0,0,1,44,37ZM43,4a1,1,0,1,1-1,1A1,1,0,0,1,43,4ZM34.7,14.71,41.71,7.7a2.923,2.923,0,0,0,2.58,0l7.01,7.01a2.924,2.924,0,0,0,0,2.58L44.29,24.3a2.923,2.923,0,0,0-2.58,0L34.7,17.29a2.923,2.923,0,0,0,0-2.58ZM32,15a1,1,0,1,1-1,1A1,1,0,0,1,32,15ZM21,4a1,1,0,1,1-1,1A1,1,0,0,1,21,4ZM19.71,24.3,12.7,17.29a2.923,2.923,0,0,0,0-2.58L19.71,7.7a2.924,2.924,0,0,0,2.58,0l7.01,7.01a2.924,2.924,0,0,0,0,2.58L22.29,24.3a2.924,2.924,0,0,0-2.58,0ZM22,27a1,1,0,1,1-1-1A1,1,0,0,1,22,27Zm-1,9a1,1,0,1,1-1,1A1,1,0,0,1,21,36Zm0,24a1,1,0,1,1,1-1A1,1,0,0,1,21,60Zm8.3-10.71L22.29,56.3a2.924,2.924,0,0,0-2.58,0L12.7,49.29a2.924,2.924,0,0,0,0-2.58l7.01-7.01a2.924,2.924,0,0,0,2.58,0l7.01,7.01a2.923,2.923,0,0,0,0,2.58ZM32,49a1,1,0,1,1,1-1A1,1,0,0,1,32,49Zm0-4a2.98,2.98,0,0,0-1.29.3L23.7,38.29A2.98,2.98,0,0,0,24,37a3.01,3.01,0,0,0-2-2.82V29.82A3.01,3.01,0,0,0,24,27a2.98,2.98,0,0,0-.3-1.29l7.01-7.01a2.924,2.924,0,0,0,2.58,0l7.01,7.01A2.98,2.98,0,0,0,40,27a3.01,3.01,0,0,0,2,2.82v4.36A3.01,3.01,0,0,0,40,37a2.98,2.98,0,0,0,.3,1.29L33.29,45.3A2.98,2.98,0,0,0,32,45ZM43,60a1,1,0,1,1,1-1A1,1,0,0,1,43,60Zm8.3-10.71L44.29,56.3a2.924,2.924,0,0,0-2.58,0L34.7,49.29a2.923,2.923,0,0,0,0-2.58l7.01-7.01a2.924,2.924,0,0,0,2.58,0l7.01,7.01a2.924,2.924,0,0,0,0,2.58ZM54,49a1,1,0,1,1,1-1A1,1,0,0,1,54,49Z"/><path d="M59,29a2.951,2.951,0,0,0-1.285.3l-4.008-4.008-1.414,1.414L56.3,30.715a2.893,2.893,0,0,0,0,2.57l-4.008,4.008,1.414,1.414L57.715,34.7A2.951,2.951,0,0,0,59,35a3,3,0,0,0,0-6Zm0,4a1,1,0,1,1,1-1A1,1,0,0,1,59,33Z"/><path d="M10.293,38.707l1.414-1.414L7.7,33.285a2.893,2.893,0,0,0,0-2.57l4.008-4.008-1.414-1.414L6.285,29.3A2.951,2.951,0,0,0,5,29a3,3,0,0,0,0,6,2.951,2.951,0,0,0,1.285-.3ZM4,32a1,1,0,1,1,1,1A1,1,0,0,1,4,32Z"/></g></svg>
